<?xml version="1.0" encoding="utf-8"?>
<!-- Generator: Adobe Illustrator 28.3.0, SVG Export Plug-In . SVG Version: 6.00 Build 0)  -->
<svg version="1.1" id="Layer_1" xmlns="http://www.w3.org/2000/svg" xmlns:xlink="http://www.w3.org/1999/xlink" x="0px" y="0px"
	 viewBox="0 0 288 288" style="enable-background:new 0 0 288 288;" xml:space="preserve">
<style type="text/css">
	.st0{fill:#1E4D2B;}
	.st1{fill:#C8C372;}
	.st2{fill:#FFFFFF;}
</style>
<g>
	<path class="st0" d="M238.5,258.3c-1.2,1.2-2.7,1.9-4.5,1.9s-3.2-0.6-4.5-1.9c-1.2-1.2-1.8-2.7-1.8-4.5c0-1.7,0.6-3.2,1.8-4.4
		c1.2-1.2,2.7-1.8,4.4-1.8c1.7,0,3.2,0.6,4.5,1.8c1.2,1.2,1.8,2.7,1.8,4.4C240.3,255.6,239.7,257.1,238.5,258.3L238.5,258.3z
		 M230.2,250c-1.1,1.1-1.6,2.3-1.6,3.8c0,1.5,0.5,2.8,1.6,3.9c1.1,1.1,2.3,1.6,3.8,1.6s2.8-0.5,3.8-1.6s1.6-2.4,1.6-3.9
		c0-1.5-0.5-2.8-1.6-3.8c-1.1-1.1-2.3-1.6-3.8-1.6C232.6,248.4,231.3,249,230.2,250L230.2,250z M233.9,250.4c0.9,0,1.5,0.1,1.9,0.2
		c0.7,0.3,1.1,0.9,1.1,1.8c0,0.6-0.2,1.1-0.7,1.4c-0.2,0.2-0.6,0.3-1,0.3c0.5,0.1,0.9,0.3,1.2,0.7c0.3,0.4,0.4,0.7,0.4,1.1v0.5
		c0,0.2,0,0.3,0,0.5c0,0.2,0,0.3,0.1,0.4l0,0.1h-1.1c0,0,0,0,0-0.1c0,0,0,0,0-0.1l0-0.2v-0.5c0-0.8-0.2-1.3-0.7-1.6
		c-0.3-0.1-0.7-0.2-1.4-0.2h-1v2.7h-1.2v-6.9H233.9L233.9,250.4z M235.2,251.5c-0.3-0.2-0.8-0.3-1.5-0.3h-1v2.5h1.1
		c0.5,0,0.9-0.1,1.2-0.2c0.5-0.2,0.7-0.5,0.7-1.1C235.7,252,235.5,251.7,235.2,251.5L235.2,251.5z"/>
	<circle class="st1" cx="143.7" cy="144" r="125.3"/>
	<circle class="st0" cx="143.7" cy="144" r="120.1"/>
	<g>
		<path class="st2" d="M223.7,137c-0.6-4.7-4.7-6.2-8.4-7.3c-10.6-3.3-15,0.8-18.1,1.1c3.3-3.8,2.5-10.2-1.9-10.9
			c-8.2-1.3-5.9,7.6-4,11.7c1.3,2.6,2.9,6.9,7,6.6c5-0.4,4.2-4.5,11.4-5c0,0,8.9,0.7,8.8,3.5c-0.3,4.2-5,5.8-8,6.8
			c-4.5,1.5-9.6-0.7-13.2,3.4c-1.1,1.4-2,3.1-1.6,4.6c0.4,1.5,0.6,0.9,5.5,1.3c-2.8,3.4-4.4,8.6-4.5,13.2c-0.2,12.3-3.2,21.8-2,26
			c5.9-7.2,5.8-17.9,6.8-26.6c0.6-4.5,2.2-9.4,4.4-12.7c2.5-3.8,7.3-4,10.5-6.3C219.4,144.2,224.1,140.5,223.7,137z"/>
		<path class="st2" d="M124.8,172.2c3.3-5.1,6.8-16.2,4.8-20.9c-3.2-1.3-7.2-3.8-9.5-7.4c-2.4-3.4-3.7-7.2-7.9-8.4
			c-2.8-1-5.9-0.4-8.1,0.8c-3.7,2.1-4.5,7.1-5.1,11.1c-0.2,8.2,1.3,20.3,4.9,27.9c2.1,5.7,7,15.1,13.1,24
			C115.2,185.3,123,176.1,124.8,172.2z M114,154.2c-1.6-2.8-5.8-2.3-7.7-3.4c-3.2-2-3-6.4-0.1-9.1c3.8-3.5,13.7,7.7,11.5,16.5
			C116.8,158.4,116.3,157.9,114,154.2z"/>
		<path class="st2" d="M156.2,209.8c-4.1,0.4-8.6,1.4-12.3,1.3c-3.6,0.1-8.2-0.9-12.3-1.3c-0.7-0.1-1.1,0.4-1.1,0.4
			c-2.4,5.1,11.4,8,13.4,7.9c2,0.1,15.9-2.7,13.5-7.9C157.3,210.3,156.8,209.8,156.2,209.8z"/>
		<path class="st2" d="M93.1,119.9c-4.3,0.7-5.1,7.1-1.9,10.9c-3-0.3-7.5-4.5-18-1.1c-3.6,1.1-7.8,2.6-8.4,7.3
			c-0.4,3.5,4.3,7.2,7.3,9.4c3.1,2.3,8,2.5,10.5,6.3c2.1,3.2,3.8,8.2,4.4,12.7c1,8.6,0.8,19.4,6.8,26.6c1.1-4.2-2-13.7-2-26
			c-0.1-4.5-1.8-9.7-4.5-13.2c4.9-0.4,5,0.3,5.4-1.3c0.5-1.5-0.5-3.2-1.6-4.6c-3.6-4.1-8.7-2-13.2-3.4c-3-1.1-7.6-2.6-7.9-6.8
			c-0.2-2.8,8.8-3.5,8.8-3.5c7.1,0.6,6.3,4.6,11.3,5c4.1,0.3,5.8-4,7.1-6.6C99.1,127.5,101.4,118.7,93.1,119.9z"/>
		<path class="st2" d="M143.9,164.9L143.9,164.9C143.9,164.9,143.9,164.9,143.9,164.9l-0.2,0v0c-3.9,0.1-6,3.4-9.6,7.1
			c-6.3,6.8-19.1,23.8-9.7,31.8c4.1,3.6,9.6,6,17.1,3.7c1.9-1.3,0.8-5.1-0.2-6.8c-3.5-4.5-8.9-2.7-10.5-5c-1.5-2.2-0.5-3.9,0.4-5
			c1.3-1.6,3.4-1.2,5.2-0.7c3.2,0.7,5.3,2,7.3,4v0.1c0,0,0.1,0,0.1-0.1c0,0,0.1,0,0.1,0.1v-0.2c1.9-1.9,4.1-3.3,7.3-4
			c1.7-0.5,3.9-0.9,5.1,0.7c1,1.1,1.9,2.8,0.4,5c-1.5,2.3-6.9,0.5-10.4,5c-1,1.7-2.1,5.5-0.3,6.8c7.6,2.3,12.9-0.2,17.1-3.7
			c9.4-8-3.4-25-9.7-31.8C149.9,168.2,147.7,165,143.9,164.9z"/>
		<path class="st2" d="M183.2,136.4c-2.3-1.2-5.4-1.8-8.1-0.8c-4.1,1.1-5.4,4.9-7.9,8.4c-2.3,3.6-6.2,6.1-9.5,7.4
			c-2,4.7,1.5,15.8,4.8,20.9c1.9,3.8,9.6,13.1,8,27.1c6.1-8.8,11-18.3,13-24c3.6-7.6,5.2-19.7,4.9-27.9
			C187.9,143.5,186.9,138.5,183.2,136.4z M181,150.7c-1.9,1.1-6,0.6-7.7,3.4c-2.3,3.7-2.8,4.3-3.7,4c-2.2-8.8,7.7-20,11.5-16.5
			C184,144.3,184.1,148.7,181,150.7z"/>
		<path class="st2" d="M143.7,30.4c-62.6,0-113.6,51-113.6,113.6c0,62.5,51,113.6,113.6,113.6c62.5,0,113.5-51.1,113.5-113.6
			C257.2,81.4,206.2,30.4,143.7,30.4z M228.6,211.4c-3.8,5.1-8.1,9.3-13.6,11.3c-3.4,1.4-7.1,2-10.6,0.3c-2.8-1.2-4.5-4-5-7.1
			c-0.6-4.5,1.9-9.9,4.1-13.5c3-5.1,10-14,18-20c11.4-8.4,19.4-10.8,16.4-12.8c-2.1-1.4-12.9,4.6-15,5.7
			c-12.1,6.3-28.9,24.4-30.8,37.8c-1.4,9.2,7.8,16.2,15.6,15.8c-26.1,20.9-54.4,21.6-63.9,21.8l-0.1,0l0,0c-9.6-0.2-38-0.9-64-21.8
			c7.9,0.3,17-6.6,15.6-15.8c-2-13.4-18.8-31.5-30.8-37.8c-2.1-1.1-13-7.1-15-5.7c-3,1.9,5,4.3,16.4,12.8c8,5.9,14.9,14.9,18,20
			c2.3,3.6,4.8,8.9,4.2,13.5c-0.5,3.1-2.3,5.9-5,7.1c-3.5,1.6-7.1,1.1-10.7-0.3c-5.4-2-9.8-6.2-13.5-11.3
			c-7.1-9.7-14.1-20.8-17.6-32.6c3,6.7,22.2,34.9,30.8,35.3c8.8,0.5-8.5-22.9-20.4-32.6c-2.9-2.4-6.2-5.1-6.8-9.5
			c-0.5-3.2,1.1-5.3,4.3-5.4c4.8-0.2,17.1,6.3,17.3,6C44.8,134,77.7,114.5,64,106c-4.8-3-14.8,0-20.3,0.8
			c50.6-29.9,59.5-0.1,74.7,13.6c2.4,2.2,13.1,0,15.2-2.5c2.7-3.2,8.1-14.9,2-22.7C127.1,84.6,92.9,53.8,60.7,77
			c7.9-10.8,19.7-20.6,33.9-27.9c16-8.2,33.4-12.4,49.2-12l0,0l0,0c31-0.9,65.6,16,82.9,39.8c-32.4-23.2-66.4,7.6-75,18.3
			c-6.1,7.7-0.7,19.4,2,22.7c2.1,2.5,12.9,4.7,15.3,2.5c15.3-13.7,24.1-43.5,74.7-13.6c-5.5-0.8-15.7-3.8-20.3-0.8
			c-13.6,8.4,19.2,27.9-2.2,66.5c0.2,0.2,12.6-6.2,17.3-6c3.1,0.2,4.8,2.3,4.3,5.4c-0.7,4.4-4,7.2-6.8,9.5
			c-11.9,9.7-29.2,33.1-20.5,32.6c8.6-0.4,27.8-28.6,30.8-35.3C242.7,190.6,235.6,201.7,228.6,211.4z M210.9,228.4
			C210.9,228.4,210.9,228.4,210.9,228.4C210.9,228.4,210.9,228.4,210.9,228.4L210.9,228.4z M230.9,80.3L230.9,80.3L230.9,80.3
			C230.9,80.3,230.9,80.3,230.9,80.3z"/>
	</g>
</g>
</svg>
